# xmcd
#
# Track frame offsets:
# 150
# 18248
# 34393
#
# Disc length: 683 seconds
#
#
# Revision: 0
# Processed by: cddbd v1.5.2PL0 Copyright (c) Steve Scherf et al.
# Submitted via: FreeRIP 2.96 
#
DISCID=1c02a903
DTITLE=Bonnie Raitt - Have A Heart 5"CD Single
DYEAR=1990
DGENRE=Pop
TTITLE0=Have A Heart
TTITLE1=The Road's My Middle Name
TTITLE2=Too Soon To Tell
EXTD=From The Album:Nick Of Time
EXTT0=
EXTT1=
EXTT2=
PLAYORDER=
